<svg xmlns="http://www.w3.org/2000/svg" viewBox="0 0 48 48" class="c-dnfLDN c-dnfLDN-igKbBwK-css"><path fill-rule="evenodd" clip-rule="evenodd" d="M23.2888 0.179293C23.7328 -0.0597644 24.2672 -0.0597644 24.7112 0.179293L44.2112 10.6793C44.697 10.9409 45 11.4482 45 12V36C45 36.5518 44.697 37.0591 44.2112 37.3207L24.7112 47.8207C24.2672 48.0598 23.7328 48.0598 23.2888 47.8207L3.78885 37.3207C3.30299 37.0591 3 36.5518 3 36V12C3 11.4482 3.30299 10.9409 3.78885 10.6793L23.2888 0.179293ZM6 14.5113V35.1041L22.5 43.9887V23.3959L6 14.5113ZM25.5 23.3959V43.9887L42 35.1041V14.5113L25.5 23.3959ZM40.3361 12L24 20.7964L7.66389 12L24 3.20363L40.3361 12Z" fill="currentColor"></path></svg>